<?xml version="1.0" encoding="UTF-8" standalone="no"?>
<svg
   xmlns:dc="http://purl.org/dc/elements/1.1/"
   xmlns:cc="http://creativecommons.org/ns#"
   xmlns:rdf="http://www.w3.org/1999/02/22-rdf-syntax-ns#"
   xmlns:svg="http://www.w3.org/2000/svg"
   xmlns="http://www.w3.org/2000/svg"
   xmlns:sodipodi="http://sodipodi.sourceforge.net/DTD/sodipodi-0.dtd"
   xmlns:inkscape="http://www.inkscape.org/namespaces/inkscape"
   version="1.0"
   width="1203pt"
   height="1308.6993pt"
   viewBox="0 0 1203 1308.6993"
   preserveAspectRatio="xMidYMid meet"
   id="svg50"
   sodipodi:docname="babraham.svg"
   inkscape:version="1.0.2 (e86c870879, 2021-01-15)">
  <defs
     id="defs54" />
  <sodipodi:namedview
     pagecolor="#ffffff"
     bordercolor="#666666"
     borderopacity="1"
     objecttolerance="10"
     gridtolerance="10"
     guidetolerance="10"
     inkscape:pageopacity="0"
     inkscape:pageshadow="2"
     inkscape:window-width="1920"
     inkscape:window-height="1047"
     id="namedview52"
     showgrid="false"
     fit-margin-top="0"
     fit-margin-left="0"
     fit-margin-right="0"
     fit-margin-bottom="0"
     inkscape:zoom="0.36589056"
     inkscape:cx="997.26204"
     inkscape:cy="706.96166"
     inkscape:window-x="0"
     inkscape:window-y="33"
     inkscape:window-maximized="1"
     inkscape:current-layer="svg50" />
  <metadata
     id="metadata2">
Created by potrace 1.16, written by Peter Selinger 2001-2019
<rdf:RDF>
  <cc:Work
     rdf:about="">
    <dc:format>image/svg+xml</dc:format>
    <dc:type
       rdf:resource="http://purl.org/dc/dcmitype/StillImage" />
    <dc:title></dc:title>
  </cc:Work>
</rdf:RDF>
</metadata>
  <path
     d="M 1044,0.89929815 C 969,7.8992981 895.8,57.199298 863,122.5993 c -5.6,11.2 -11.9,29 -14.5,41.1 -1.8,8.1 -3.2,36.6 -2.1,42.4 0.7,3.5 0.9,3.6 4.9,3.6 h 4.3 l 1.2,-10.6 c 3.3,-28 17.6,-55.7 41.6,-81.2 35.5,-37.500002 87.2,-61.900002 135.6,-63.900002 48.2,-1.9 86.2,17.7 102.5,53.000002 4.9,10.6 6.5,17.8 7.2,31.2 1.5,32.4 -13.1,67.5 -42,101.1 -8.6,9.9 -23.7,24.4 -30.9,29.5 l -2.7,2 -2.7,-5.3 c -1.4,-2.9 -2.8,-5.4 -2.9,-5.6 -0.2,-0.2 -2.9,1.4 -6.1,3.4 -16.1,10.3 -45,22.1 -64.6,26.3 -32.5,6.9 -66.7,4.4 -88.3,-6.7 l -4.1,-2 -2.3,3.6 -2.4,3.6 2.9,2.3 c 4.4,3.6 25.9,13.9 34.9,16.8 4.4,1.4 12.8,3.6 18.8,4.7 5.9,1.2 10.7,2.4 10.7,2.7 0,0.4 -5.3,1.7 -11.7,3 -23.8,4.8 -51,13.4 -77.7,24.7 -10.5,4.5 -26.2,11.9 -27.4,12.9 -0.3,0.2 2.7,7.5 3.1,7.5 0.2,0 5.6,-1.8 12.2,-4 43.3,-14.6 83.5,-14.5 119.3,0.1 9.2,3.7 11.2,4 11.2,1.6 0,-0.7 0.5,-2.9 1,-4.9 l 1.1,-3.7 5.7,2.5 c 22.5,9.9 40.1,26.6 47.7,45.1 19.7,48.5 -3.1,122.2 -62.4,201.8 -30.7,41.1 -74.9,86.6 -113.3,116.4 l -5.6,4.4 2.5,3.4 c 1.4,1.8 2.8,3.3 3.2,3.3 1.1,-0.1 29.9,-21.5 47.1,-34.9 32.4,-25.5 60.8,-50.9 90,-80.7 65.5,-66.9 106.4,-129.9 117.6,-181.4 1.4,-6.4 1.9,-12.5 1.8,-25 0,-15.3 -0.2,-17.1 -2.8,-25 -10,-30.4 -35.4,-53.1 -70.9,-63.4 -4.8,-1.4 -11.8,-3 -15.5,-3.6 -14.1,-2.3 -14.4,-2.9 -3.4,-5.4 68.3,-15.6 132.2,-68.3 156.7,-129.1 7.5,-18.8 11.5,-38.6 11.5,-57.3 0,-77.900002 -68.7,-130.5000019 -159,-122.00000185 z"
     id="path4"
     style="fill:#009fe3;fill-opacity:1;stroke:none;stroke-width:0.1" />
  <path
     d="m 672.5,87.699298 c -90.4,9.9 -205.1,113.200002 -306.7,276.000002 -81.5,130.5 -144.4,288.1 -169.3,424 -4,21.9 -8,49.8 -9.4,66.5 -0.6,6.6 -1.3,14.1 -1.6,16.7 l -0.6,4.8 h 5.1 c 4.5,0 5,-0.2 5,-2.3 0,-1.2 2,-12.3 4.5,-24.7 17.1,-84.6 47.2,-174.6 88,-263 6.9,-14.9 30,-61.4 36.3,-73 41.7,-77 86.1,-143 134.2,-199.6 17.2,-20.4 60.6,-63.8 77.8,-77.9 41.8,-34.4 77.2,-54.5 112,-63.6 9.6,-2.6 14.3,-3.2 26.6,-3.6 9.8,-0.4 17.2,-0.2 22,0.7 47.8,8.4 78.2,53 87.1,127.6 2.1,17.1 2.9,54.2 1.7,72.9 -1.1,16.6 -1,16.7 4.8,16.3 l 3.5,-0.3 2.6,-18.5 c 4.1,-28.6 5.9,-50.2 6.6,-78 2.6,-114.5 -31.7,-186 -95.7,-199.500002 -8.9,-1.8 -24.8,-2.5 -34.5,-1.5 z"
     id="path6"
     style="fill:#009fe3;fill-opacity:1;stroke:none;stroke-width:0.1" />
  <path
     d="m 665,430.1993 c -45.1,5.7 -80.4,20.1 -103.3,42.4 -16.7,16.2 -24.8,31.7 -30.4,58.1 -2.7,12.7 -2.4,39 0.5,52.6 12,56.2 53.8,107.5 125.9,154.8 46.2,30.3 103.7,57.8 158.8,76.1 101.2,33.6 201.5,40.5 268.3,18.6 26.8,-8.8 45.6,-20.7 59.9,-38 l 5.3,-6.5 -3.1,-3.2 -3.1,-3.2 -5.8,4.2 c -33.3,24.6 -90.4,33.6 -157.5,25 -48.4,-6.2 -103.9,-22.5 -154.5,-45.4 -117.8,-53.4 -206.9,-139.5 -219.6,-212.3 -1.9,-10.9 -1.4,-29 1,-38.2 9.9,-37.2 47.9,-62.2 105.6,-69.5 20,-2.5 56.6,-2.2 77.6,0.7 4.1,0.5 4.1,0.5 4.8,-3.2 0.5,-2.5 0.3,-4 -0.4,-4.5 -1.5,-1 -22.7,-4.7 -41,-7.2 -19.4,-2.7 -71.7,-3.4 -89,-1.3 z"
     id="path8"
     style="fill:#009fe3;fill-opacity:1;stroke:none;stroke-width:0.1" />
  <path
     d="m 489.9,836.7993 c -87.5,2.9 -169,14.6 -232.9,33.6 -4.7,1.4 -8.9,2.9 -9.4,3.3 -1.1,1.1 1.2,8 2.7,8 0.7,0 8.2,-1.3 16.7,-2.9 154.4,-29.2 357.1,-21.7 518.5,19.1 57.1,14.4 103.4,30.8 143,50.8 21.9,11 35.7,19.2 48.7,28.8 27.6,20.6 42.8,39 50.4,61.2 2.6,7.6 2.6,26.2 0,34 -11.3,33.8 -50.6,63.1 -115.1,86 -8.2,3 -15.1,5.5 -15.3,5.6 -0.2,0.1 0.2,2.2 0.8,4.6 l 1.2,4.5 12.6,-2.9 c 71.9,-16.6 129.2,-41.9 159.3,-70.5 21.3,-20.3 29.9,-37.8 29.9,-60.7 0,-22.7 -9.7,-42.4 -32,-64.7 -86.3,-86.6 -335.5,-145.9 -579.1,-137.8 z"
     id="path10"
     style="fill:#24195c;fill-opacity:1;stroke:none;stroke-width:0.1" />
  <path
     d="m 214,1023.8993 c 0,38.1 -0.3,72.3 -0.7,76 l -0.6,6.8 h 10.5 c 12,0 11.8,0.1 11.8,-8 0,-7.8 0.8,-8.6 4,-4.1 8.3,11.3 24.1,16.5 39,12.7 23.4,-6 37.4,-29.1 35.7,-59.1 -1,-16.1 -5.1,-26.8 -13.9,-36.2 -14.9,-15.6 -42.2,-15.7 -56.3,-0.1 l -4.5,5 v -31.1 -31.1 H 226.5 214 Z m 58.8,-1.4 c 4.9,2.2 9.2,6.9 12.1,13.2 3.6,7.9 4.2,23 1.3,32.7 -3.8,12.5 -12.1,19.2 -23.6,19.3 -10.5,0 -18.7,-5.9 -22.1,-15.9 -2,-6 -2.1,-26.9 0,-33.7 0.8,-2.7 3.1,-6.9 5.1,-9.2 7.3,-8.6 17.4,-11 27.2,-6.4 z"
     id="path12"
     style="fill:#24195c;fill-opacity:1;stroke:none;stroke-width:0.1" />
  <path
     d="m 497,1030.6993 v 76 h 12.5 12.5 v -32.3 c 0,-35.1 0.4,-38.6 5.5,-45.3 7.1,-9.3 21.6,-10.4 29.2,-2.2 5.6,5.9 5.8,7.5 6.1,45 l 0.3,34.8 h 12.5 12.4 v -35.8 c 0,-37.9 -0.6,-43.5 -5.1,-52.3 -10.6,-20.9 -38.6,-24.6 -55.4,-7.3 -2.4,2.4 -4.6,4.4 -4.9,4.4 -0.4,0 -0.5,-13.7 -0.4,-30.5 l 0.3,-30.5 H 509.8 497 Z"
     id="path14"
     style="fill:#24195c;fill-opacity:1;stroke:none;stroke-width:0.1" />
  <path
     d="m 15,962.2993 c -0.8,0.1 -4.5,0.6 -8.2,0.9 l -6.8,0.7 v 70.9 70.9 l 2.8,0.7 c 1.5,0.4 12.8,0.8 25.2,0.8 18.3,0 24,-0.3 30.5,-1.8 16.7,-3.9 27.9,-11.7 33.7,-23.5 3.1,-6.3 3.3,-7.3 3.3,-17.2 0,-9.4 -0.3,-11 -2.7,-15.6 -5,-9.5 -9.9,-14.1 -19.6,-18 l -5.5,-2.2 4.3,-2.2 c 6.1,-3.1 12.8,-9.6 15.8,-15.5 2.3,-4.3 2.7,-6.2 2.7,-14 0,-7.1 -0.5,-10 -2.2,-13.7 -4.3,-9.3 -16.1,-17.6 -29,-20.3 -6.1,-1.3 -39.4,-2 -44.3,-0.9 z m 36.1,19.4 c 9.2,2.6 14.4,9.1 14.4,18 0,14.5 -11.3,22 -33.3,22 H 25 v -19.8 c 0,-10.9 0.3,-20.2 0.7,-20.5 1,-1.1 21.4,-0.8 25.4,0.3 z m 4.9,61.9 c 2.5,1.3 5.6,3.3 6.8,4.5 9,8.1 8.5,24.9 -0.9,33 -5.8,5 -12.2,6.6 -25.5,6.6 H 25 v -23.6 -23.6 l 13.3,0.4 c 11.4,0.3 13.8,0.7 17.7,2.7 z"
     id="path16"
     style="fill:#24195c;fill-opacity:1;stroke:none;stroke-width:0.1" />
  <path
     d="m 141.1,1000.7993 c -7.7,0.8 -22.2,5 -25.4,7.4 -1.8,1.3 -1.8,1.6 0.6,9.2 1.3,4.3 2.8,7.7 3.3,7.6 0.5,-0.1 3.7,-1.4 7,-2.7 3.4,-1.4 9.2,-3 12.9,-3.5 15.4,-2.2 25.2,3.3 26.3,14.7 l 0.4,4.9 -9.9,0.6 c -25.2,1.7 -41.7,10.5 -47.3,25.3 -3.1,8.2 -2.5,20.6 1.3,28 9.6,18.7 37.4,21.8 54.2,5.9 2.1,-1.9 3.9,-3.5 4,-3.5 0.2,0 0.6,2.7 1,6 l 0.7,6 h 11.5 11.5 l -0.7,-3.8 c -0.4,-2 -1,-19.7 -1.4,-39.2 -0.7,-33.4 -0.9,-35.8 -3,-41.1 -6.5,-16.7 -22.8,-24.3 -47,-21.8 z m 25.7,65.3 c -0.3,9.7 -0.6,10.8 -3.3,14.7 -3.9,5.6 -10.3,8.9 -16.9,8.9 -8.2,0 -12.8,-3.7 -14.6,-11.3 -3,-13.3 8.3,-22.5 27.9,-22.6 l 7.3,-0.1 z"
     id="path18"
     style="fill:#24195c;fill-opacity:1;stroke:none;stroke-width:0.1" />
  <path
     d="m 376,1000.5993 c -8.5,1.8 -18.2,9.7 -21.7,17.9 l -1.7,3.7 -0.7,-4.5 c -0.4,-2.5 -0.8,-6.9 -0.8,-9.8 l -0.1,-5.2 h -11.1 -11.1 l 0.6,3.1 c 0.3,1.7 0.6,25.1 0.6,52 v 48.9 h 12.5 12.5 v -28.8 c 0,-22.5 0.3,-30.1 1.5,-34.7 3.2,-12.5 11.1,-18.9 23.1,-18.8 h 6.4 v -11.8 c 0,-8.9 -0.3,-11.9 -1.2,-11.9 -0.7,0 -2.2,-0.2 -3.3,-0.4 -1.1,-0.2 -3.6,-0.1 -5.5,0.3 z"
     id="path20"
     style="fill:#24195c;fill-opacity:1;stroke:none;stroke-width:0.1" />
  <path
     d="m 424.5,1000.6993 c -8.7,1 -14.4,2.4 -21.7,5.7 -6.4,2.9 -6.3,2 -2.8,13.1 1,3.1 2.2,5.6 2.7,5.5 0.4,-0.1 3.6,-1.4 6.9,-2.7 8,-3.3 18.2,-4.8 24.8,-3.5 5.5,1 8.8,3 11.9,7 1.9,2.7 4.1,10.5 3.3,11.8 -0.3,0.4 -4.9,1.1 -10.3,1.5 -23.9,1.6 -39.6,9.4 -46.3,23.1 -2.2,4.3 -2.5,6.4 -2.5,15 0,9.3 0.2,10.4 3.1,15.5 6.2,10.9 18.5,17 31.8,15.5 7.8,-0.8 18.5,-5.7 23.1,-10.5 l 3,-3.2 1,5.9 1.1,5.8 10.9,0.3 11,0.3 -0.3,-31.8 c -0.1,-17.5 -0.7,-35.6 -1.2,-40.2 -2.9,-25.1 -20.4,-37.2 -49.5,-34.1 z m 25.5,64.3 c 0,7.9 -0.4,10.1 -2.3,13.8 -3.4,6.4 -9.3,10.2 -16.5,10.7 -10.2,0.7 -16.2,-4.5 -16.2,-14.1 0,-12.5 9.8,-19.5 27.8,-19.6 l 7.2,-0.1 z"
     id="path22"
     style="fill:#24195c;fill-opacity:1;stroke:none;stroke-width:0.1" />
  <path
     d="m 637.4,1000.7993 c -7.6,0.9 -21.8,5 -24.8,7.2 -1.7,1.3 -1.7,1.6 0.4,9.3 1.2,4.3 2.3,8 2.5,8.2 0.2,0.2 2.5,-0.8 5.2,-2.1 6.5,-3.3 14.5,-5.1 22.3,-5 11.5,0 18.9,5.8 19.8,15.3 l 0.4,4.7 -9.8,0.6 c -23.3,1.5 -38.8,8.9 -45.9,21.9 -3.7,6.8 -4.7,19.7 -2.1,27.6 3.4,10.1 13.9,18.3 25.3,19.8 10.7,1.3 26,-4 31.9,-11.2 2.5,-3.1 2.9,-2.6 3.9,4.3 l 0.7,5.3 h 11.5 c 11.5,0 11.5,0 10.8,-2.3 -0.4,-1.2 -0.9,-17.3 -1.1,-35.7 -0.2,-18.6 -0.9,-35.9 -1.5,-39 -1.3,-6.5 -4.8,-13.6 -8.8,-18.3 -7.6,-8.5 -23.3,-12.7 -40.7,-10.6 z m 26.4,64.6 c -0.3,8 -0.8,10.6 -2.8,14 -3.7,6.6 -8.9,9.7 -17,10.1 -6.5,0.4 -6.9,0.3 -10.5,-2.9 -8.4,-7.8 -6.1,-21.5 4.6,-26.9 5.4,-2.8 10.2,-3.8 18.8,-3.9 l 7.3,-0.1 z"
     id="path24"
     style="fill:#24195c;fill-opacity:1;stroke:none;stroke-width:0.1" />
  <path
     d="m 757.5,1000.6993 c -9.2,1.9 -15.9,6 -21,12.7 -1.8,2.3 -3.5,4 -3.9,3.6 -0.3,-0.3 -0.6,-3.7 -0.6,-7.5 v -6.8 h -11.1 -11.2 l 0.7,7.7 c 0.3,4.2 0.6,27.6 0.6,52 v 44.3 h 11.9 12 l 0.3,-34.3 c 0.3,-33.6 0.3,-34.3 2.7,-38.9 6.3,-12.8 20.1,-16.4 28.6,-7.3 5.6,5.8 5.8,7.8 6.2,45.7 l 0.4,34.8 h 11.9 11.9 l 0.3,-34.8 0.3,-34.8 2.6,-4.9 c 3.6,-7 9.4,-10.9 16.2,-10.9 9.7,0 15.3,5.8 17.7,18.3 0.5,3 1,19.3 1,36.2 v 30.9 h 12 12 v -36.3 c 0,-39.5 -0.6,-44.4 -5.7,-54 -7.9,-14.4 -26.5,-20.4 -41.8,-13.3 -6.9,3.1 -13.7,8.5 -16.2,12.6 -2.1,3.6 -2.7,3.7 -4.1,0.5 -2.1,-4.5 -9.1,-11.2 -14,-13.3 -5.6,-2.4 -14.2,-3.4 -19.7,-2.2 z"
     id="path26"
     style="fill:#24195c;fill-opacity:1;stroke:none;stroke-width:0.1" />
  <path
     d="m 1,1234.6993 v 72 h 9 9 l 0.2,-72 0.3,-72 H 10.3 1 Z"
     id="path28"
     style="fill:#24195c;fill-opacity:1;stroke:none;stroke-width:0.1" />
  <path
     d="m 305.4,1166.0993 c -9.2,9.2 1,23.8 12.8,18.2 4.3,-2.1 6.3,-5.5 6.1,-10.8 -0.3,-7.2 -4.3,-10.8 -12,-10.8 -2.7,0 -4.3,0.8 -6.9,3.4 z"
     id="path30"
     style="fill:#24195c;fill-opacity:1;stroke:none;stroke-width:0.1" />
  <path
     d="m 360.8,1176.3993 -8.8,2.5 v 12.4 12.4 h -8 -8 v 7 7 h 7.9 7.9 l 0.4,34.7 c 0.4,33.2 0.5,35.1 2.7,40.5 4.5,11.7 13.9,16.6 29.5,15.5 11.4,-0.7 11.6,-0.9 11.6,-7.2 0,-8.3 -0.1,-8.4 -8.3,-7.8 -8.6,0.5 -12.2,-1.2 -15.3,-7.3 -1.8,-3.6 -1.9,-6.4 -1.9,-35.9 v -32 l 13.3,-0.3 13.2,-0.3 v -6.9 -6.9 l -13.2,-0.3 -13.3,-0.3 v -14.8 c 0,-8.1 -0.2,-14.7 -0.5,-14.6 -0.3,0.1 -4.4,1.2 -9.2,2.6 z"
     id="path32"
     style="fill:#24195c;fill-opacity:1;stroke:none;stroke-width:0.1" />
  <path
     d="m 542,1175.2993 c -2.5,0.7 -6.4,1.8 -8.7,2.4 l -4.3,1.1 v 12.4 12.5 h -8 -8 v 7 7 h 8 8 v 31.7 c 0,18.7 0.5,34.2 1.1,38 1.5,8.5 5.8,14.9 12.2,18.2 5.8,2.9 16.6,3.9 25.1,2.1 l 5.8,-1.2 -0.6,-4.5 c -0.3,-2.5 -0.6,-5.6 -0.6,-6.9 0,-2.2 -0.2,-2.2 -7.2,-1.8 -6.2,0.5 -7.8,0.2 -10.5,-1.5 -6.6,-4.2 -6.8,-5 -7.1,-41.4 l -0.3,-32.7 h 13.5 13.6 v -7 -7 h -13.5 -13.4 l -0.3,-14.9 -0.3,-14.8 z"
     id="path34"
     style="fill:#24195c;fill-opacity:1;stroke:none;stroke-width:0.1" />
  <path
     d="m 250.5,1176.7993 -7,2 v 12.2 12.2 l -8.2,0.3 -8.3,0.3 v 6.9 6.9 l 8.3,0.3 8.2,0.3 0.5,36 c 0.5,39.3 0.7,40.4 6.8,46.8 5.4,5.7 9.7,7.2 20.7,7.2 5.5,0 11.2,-0.3 12.8,-0.8 2.6,-0.7 2.7,-1 2.7,-7.7 v -6.9 l -6.7,0.6 c -9.5,0.8 -13.7,-1.1 -16.6,-7.4 -2.1,-4.6 -2.2,-5.9 -2.2,-36.3 v -31.5 l 13.2,-0.3 13.1,-0.3 0.4,-6.9 0.3,-7 -13.5,-0.2 -13.5,-0.3 -0.3,-14.3 c -0.3,-16.3 0.6,-15.3 -10.7,-12.1 z"
     id="path36"
     style="fill:#24195c;fill-opacity:1;stroke:none;stroke-width:0.1" />
  <path
     d="m 87.5,1202.9993 c -8.7,2.9 -14.9,7.3 -20.3,14.1 -1.2,1.6 -2.4,2.7 -2.7,2.5 -0.2,-0.3 -0.5,-3.9 -0.6,-8.2 l -0.2,-7.7 h -8.5 -8.5 l 0.7,3.7 c 0.3,2.1 0.6,25.3 0.6,51.5 v 47.8 h 8.9 9 l 0.3,-34.3 c 0.3,-32.5 0.4,-34.4 2.4,-38.8 3.1,-6.7 8.6,-12.3 14.6,-14.9 4.3,-1.8 6.5,-2.1 12.1,-1.7 9,0.6 14,3.9 18.2,12.2 l 3,5.9 0.3,35.8 0.3,35.8 h 9.4 9.5 v -30.8 c 0,-44.3 -1.5,-52.9 -10.6,-63.1 -6.7,-7.5 -13.6,-10.5 -24.8,-10.8 -5.6,-0.2 -10.6,0.2 -13.1,1 z"
     id="path38"
     style="fill:#24195c;fill-opacity:1;stroke:none;stroke-width:0.1" />
  <path
     d="m 177.9,1203.5993 c -10.7,3.5 -17.8,10.4 -20.5,20 -4.8,16.3 4.5,29 27.4,37.6 13.6,5.1 19.5,12 17.8,20.8 -0.8,4.5 -4.9,9.5 -9.3,11.3 -7.1,3 -23.9,1.1 -32.1,-3.7 -2.4,-1.4 -3.4,-1.6 -3.7,-0.6 -0.3,0.6 -1.4,3.8 -2.5,7 l -1.9,5.8 5.2,2.4 c 11.1,5.1 30.3,5.8 42,1.7 14.9,-5.3 22.9,-19.3 19.7,-34.5 -2.2,-10.8 -8.6,-16.7 -26,-24.3 -16.3,-7 -20,-10.3 -20,-17.9 0,-8.6 7.2,-14 18.5,-13.8 6.3,0 9.3,0.8 18.6,4.7 1.3,0.6 2.1,-0.5 3.8,-5.5 1.1,-3.4 1.8,-6.5 1.6,-7 -0.3,-0.4 -3.1,-1.8 -6.3,-3 -8.1,-3.1 -24.5,-3.6 -32.3,-1 z"
     id="path40"
     style="fill:#24195c;fill-opacity:1;stroke:none;stroke-width:0.1" />
  <path
     d="m 616.6,1202.7993 c -6.2,1.5 -15,6.7 -20.1,11.7 -5.6,5.6 -9,11.1 -12.3,20.1 -3.3,8.9 -4.2,27.3 -1.8,37.5 4.3,18.4 17.4,31.3 35.5,35.2 11.5,2.4 27.9,1.6 40.6,-2.2 7.7,-2.2 7.6,-2.1 5.8,-9.3 -1.4,-5.6 -1.8,-6.2 -3.7,-5.6 -10.5,3.2 -14.2,3.8 -24.1,3.9 -17.5,0.2 -27.1,-4.5 -33.2,-16 -2.5,-4.8 -5.3,-14.5 -5.3,-18.6 0,-0.4 16.4,-0.8 36.5,-0.8 h 36.4 l 0.7,-3.5 c 0.3,-2 0.3,-6.6 0,-10.3 -2,-19.7 -10.4,-33.5 -24.4,-40 -4.8,-2.2 -7.3,-2.7 -16.2,-2.9 -5.8,-0.1 -12.2,0.2 -14.4,0.8 z m 19.8,13 c 8.5,2.4 15.9,12.7 17.2,24.3 l 0.7,5.6 h -27.8 -27.8 l 0.6,-3.9 c 0.7,-5.5 4.7,-13.9 8.8,-18.6 6.5,-7.4 17.8,-10.3 28.3,-7.4 z"
     id="path42"
     style="fill:#24195c;fill-opacity:1;stroke:none;stroke-width:0.1" />
  <path
     d="m 304,1255.1993 v 51.5 h 9.5 9.5 v -51.5 -51.5 h -9.5 -9.5 z"
     id="path44"
     style="fill:#24195c;fill-opacity:1;stroke:none;stroke-width:0.1" />
  <path
     d="m 412.2,1240.3993 c 0.4,34.2 0.6,37.3 2.6,43.3 5.6,17 16.2,25 33.2,25 12.5,0 21,-3.8 29.8,-13.5 l 5.2,-5.7 v 4.9 c 0,2.6 0.3,6.5 0.6,8.5 l 0.7,3.8 h 8 8 l -0.7,-6.1 c -0.3,-3.4 -0.6,-26.6 -0.6,-51.5 v -45.4 h -8.9 -9 l -0.3,35.2 c -0.3,34 -0.4,35.4 -2.5,39.3 -6.8,12.7 -22.3,18.9 -33.8,13.6 -5,-2.3 -7.8,-5.3 -10.7,-11.6 -2.2,-4.9 -2.3,-5.9 -2.6,-40.8 l -0.3,-35.7 h -9.6 -9.5 z"
     id="path46"
     style="fill:#24195c;fill-opacity:1;stroke:none;stroke-width:0.1" />
</svg>
