<?xml version="1.0" encoding="UTF-8" standalone="no"?>
<svg
   xmlns:dc="http://purl.org/dc/elements/1.1/"
   xmlns:cc="http://creativecommons.org/ns#"
   xmlns:rdf="http://www.w3.org/1999/02/22-rdf-syntax-ns#"
   xmlns:svg="http://www.w3.org/2000/svg"
   xmlns="http://www.w3.org/2000/svg"
   xmlns:sodipodi="http://sodipodi.sourceforge.net/DTD/sodipodi-0.dtd"
   xmlns:inkscape="http://www.inkscape.org/namespaces/inkscape"
   version="1.0"
   width="746pt"
   height="287.03867pt"
   viewBox="0 0 746 287.03867"
   preserveAspectRatio="xMidYMid meet"
   id="svg86"
   sodipodi:docname="uhkt.svg"
   inkscape:version="1.0.2 (e86c870879, 2021-01-15)">
  <sodipodi:namedview
     pagecolor="#ffffff"
     bordercolor="#666666"
     borderopacity="1"
     objecttolerance="10"
     gridtolerance="10"
     guidetolerance="10"
     inkscape:pageopacity="0"
     inkscape:pageshadow="2"
     inkscape:window-width="718"
     inkscape:window-height="480"
     id="namedview12"
     showgrid="false"
     inkscape:zoom="0.42431547"
     inkscape:cx="497.33333"
     inkscape:cy="191.35911"
     inkscape:window-x="0"
     inkscape:window-y="33"
     inkscape:window-maximized="0"
     inkscape:current-layer="svg86" />
  <defs
     id="defs90" />
  <metadata
     id="metadata2">
Created by potrace 1.16, written by Peter Selinger 2001-2019
<rdf:RDF>
  <cc:Work
     rdf:about="">
    <dc:format>image/svg+xml</dc:format>
    <dc:type
       rdf:resource="http://purl.org/dc/dcmitype/StillImage" />
    <dc:title></dc:title>
  </cc:Work>
</rdf:RDF>
</metadata>
  <path
     d="M 313,111.5 V 223 h 21 20.9 l 0.3,-50.8 0.3,-50.7 2.6,-5.5 c 2.8,-6 8.2,-11.4 13.8,-13.7 5.7,-2.4 18.7,-2.9 25.4,-0.9 10.3,3 17.3,11.6 19.6,24.1 0.7,3.7 1.1,22.9 1.1,51.7 V 223 h 21.1 21.1 l -0.5,-51.3 C 459.2,115.8 459,114.1 453.1,99.9 447.2,85.8 435.2,73.1 422.2,67.3 410.6,62.1 402.5,60.6 387,60.6 c -13.6,0 -17.6,0.6 -29.7,4 L 355,65.2 354.8,32.9 354.5,0.5 333.8,0.2 313,0 Z"
     id="path4"
     style="fill:#e40521;fill-opacity:1;stroke:none;stroke-width:0.1" />
  <path
     d="M 487,111.5 V 223 h 21 21 v -23.3 l 0.1,-23.2 9.4,-10 c 7.7,-8.1 9.7,-9.7 10.5,-8.5 0.5,0.8 5.4,8 10.9,16 5.5,8 15.2,22.3 21.7,31.7 l 11.7,17.3 h 24.4 c 13.3,0 24.3,-0.2 24.3,-0.5 0,-0.2 -5.6,-8.4 -12.4,-18.2 -6.8,-9.8 -15,-21.6 -18.2,-26.3 -8.9,-12.9 -22.2,-32 -28.7,-41.3 -3.1,-4.5 -5.6,-8.7 -5.5,-9.4 0.2,-0.6 14.6,-15.8 32.1,-33.6 C 626.7,75.8 641,60.9 641,60.6 641,60.3 629.6,60 615.7,60 h -25.3 l -25.5,27.1 c -14,14.9 -27.7,29.6 -30.6,32.7 l -5.2,5.7 L 529,62.7 V 0 h -21 -21 z"
     id="path6"
     style="fill:#e40521;fill-opacity:1;stroke:none;stroke-width:0.1" />
  <path
     d="M 670,38.5 V 60 H 660 650 V 78.5 97 h 9.9 9.9 l 0.5,34.7 c 0.4,38.8 0.6,40.2 7.7,54.8 10.7,22.2 30.4,34.3 58.8,36.2 l 9.2,0.6 V 203.2 183 h -5.3 c -15.32311,0.3935 -27.28441,-7.89393 -28.2,-21.5 L 712.2,129.2 711.9,97 H 728.4 745 V 78.5 60 H 728.5 712 L 711.8,38.7 711.5,17.5 690.8,17.2 670,17 Z"
     id="path8"
     style="fill:#e40521;fill-opacity:1;stroke:none;stroke-width:0.1" />
  <path
     d="m 139,108.8 c 0,53.8 0.5,59.8 5.9,73 4,10 8.2,16.1 15.7,23.2 7.6,7.1 17,12.1 28.6,15.2 11.6,3.2 34.5,3.2 46.1,0 18.4,-5 32.7,-16 40.5,-31 9,-17.1 10.4,-30.1 10,-88.7 l -0.3,-40 -20.7,-0.3 -20.7,-0.2 -0.3,49.7 c 0.29999,24.77263 0.29999,39.20282 0.29999,50.53856 0,13.32545 -19.29172,22.31514 -33.09579,22.23477 C 198.13211,182.37994 181.62211,170.09999 181.5,158.5 L 181,111 180.5,60.5 159.8,60.2 139,60 Z"
     id="path10"
     style="fill:#e40521;fill-opacity:1;stroke:none;stroke-width:0.1" />
  <path
     d="M 48.8,69.7 C 35.1,88.3 21.9,109.4 14.5,124.1 L 11,131 h 17.3 c 18.6,0 19.7,0.3 19.7,5.1 0,5.3 -2.4,5.9 -23.1,5.9 H 6.2 l -1.5,4.5 -1.6,4.5 h 25.7 c 29,0 30.6,0.3 30,6.3 -0.5,5.4 -2.3,5.7 -32,5.7 H 0 v 4.5 4.5 h 32.8 32.9 l 2.4,2.6 c 2.2,2.3 2.3,2.7 0.8,5.2 l -1.5,2.7 -32.2,0.3 C 10.4,183 3,183.3 3,184.3 c 0,2.6 5.9,13.5 10.3,18.9 5.7,6.9 15.9,13.8 25.2,16.9 9.8,3.3 25.1,3.3 34.5,0 17.9,-6.2 31.4,-20.7 36,-38.5 2.5,-9.9 2.5,-15.9 0,-26.4 C 105.1,139.1 94.4,117.3 78.2,92.5 69.7,79.6 56.4,61 55.6,61 c -0.3,0 -3.3,3.9 -6.8,8.7 z"
     id="path12"
     style="fill:#e40521;fill-opacity:1;stroke:none;stroke-width:0.1" />
  <g
     aria-label="Ústav hematologie a krevní transfuze"
     id="text917"
     style="color:#000000;font-style:normal;font-variant:normal;font-weight:normal;font-stretch:normal;font-size:36px;line-height:125%;font-family:'Myriad Pro';-inkscape-font-specification:'Myriad Pro';text-decoration:none;text-decoration-line:none;text-decoration-color:#000000;letter-spacing:5.415px;word-spacing:0px;overflow:visible;fill:#000000;fill-rule:evenodd;stroke-width:3.225;stroke-linecap:round;paint-order:markers fill stroke">
    <path
       id="path899"
       style="font-style:normal;font-variant:normal;font-weight:normal;font-stretch:normal;font-size:36px;font-family:'Myriad Pro';-inkscape-font-specification:'Myriad Pro';fill:#000000;stroke-width:3.225"
       d="m 741.68505,271.37865 h -12.24 q 0.036,3.024 1.728,4.536 1.692,1.512 4.248,1.512 2.7,0 4.824,-0.9 l 0.54,2.268 q -2.484,1.116 -5.796,1.116 -3.96,0 -6.264,-2.412 -2.304,-2.412 -2.304,-6.408 0,-4.032 2.232,-6.696 2.232,-2.7 5.94,-2.7 2.016,0 3.492,0.828 1.512,0.792 2.268,2.124 0.756,1.296 1.08,2.628 0.36,1.296 0.36,2.628 0,0.504 -0.108,1.476 z m -12.204,-2.268 h 9.252 q 0.036,-1.944 -1.008,-3.528 -1.008,-1.62 -3.384,-1.62 -2.196,0 -3.42,1.584 -1.224,1.584 -1.44,3.564 z m -24.35092,10.404 v -1.836 l 7.884,-10.26 2.268,-2.7 v -0.072 h -9.432 v -2.556 h 13.284 l -0.036,1.98 -7.776,10.116 q -0.936,1.26 -2.232,2.736 v 0.072 h 10.188 v 2.52 z m -8.69091,-17.424 v 12.672 q 0,2.916 0.144,4.752 h -2.808 l -0.18,-2.844 h -0.072 q -0.756,1.296 -2.232,2.268 -1.44,0.972 -3.528,0.972 -1.116,0 -2.124,-0.36 -0.972,-0.324 -1.908,-1.116 -0.9,-0.828 -1.44,-2.376 -0.54,-1.584 -0.54,-3.78 v -10.188 h 3.168 v 9.648 q 0,5.544 3.888,5.544 1.476,0 2.592,-0.828 1.116,-0.864 1.584,-2.052 0.288,-0.756 0.288,-1.62 v -10.692 z m -27.05101,17.424 h -3.132 v -15.012 h -2.448 v -2.412 h 2.448 v -0.828 q 0,-4.176 2.016,-6.084 1.656,-1.62 4.248,-1.62 1.476,0 2.7,0.504 l -0.432,2.448 q -0.864,-0.396 -2.016,-0.396 -3.384,0 -3.384,5.04 v 0.936 h 4.212 v 2.412 h -4.212 z m -24.35102,-0.828 0.792,-2.412 q 1.944,1.26 4.176,1.26 1.656,0 2.52,-0.72 0.864,-0.72 0.864,-1.872 0,-1.116 -0.756,-1.836 -0.72,-0.72 -2.484,-1.368 -4.608,-1.656 -4.608,-4.932 0,-2.16 1.62,-3.636 1.656,-1.476 4.392,-1.476 2.448,0 4.284,1.08 l -0.792,2.304 q -1.584,-1.008 -3.564,-1.008 -1.368,0 -2.16,0.684 -0.756,0.684 -0.756,1.692 0,1.044 0.72,1.656 0.756,0.612 2.592,1.296 2.34,0.9 3.456,2.124 1.116,1.224 1.116,3.132 0,2.34 -1.728,3.816 -1.728,1.44 -4.788,1.44 -2.808,0 -4.896,-1.224 z m -24.17095,0.828 v -12.708 q 0,-2.808 -0.144,-4.716 h 2.808 l 0.18,2.88 h 0.072 q 0.72,-1.368 2.232,-2.304 1.512,-0.972 3.528,-0.972 1.008,0 1.98,0.36 1.008,0.324 1.98,1.116 0.972,0.756 1.584,2.304 0.612,1.512 0.612,3.636 v 10.404 h -3.168 v -10.044 q 0,-2.304 -0.972,-3.708 -0.972,-1.44 -3.06,-1.44 -1.512,0 -2.664,0.936 -1.152,0.936 -1.584,2.304 -0.216,0.576 -0.216,1.476 v 10.476 z m -10.52691,-10.692 v 6.516 q 0,2.592 0.288,4.176 h -2.88 l -0.252,-2.196 h -0.108 q -0.792,1.116 -2.196,1.872 -1.368,0.72 -3.132,0.72 -2.52,0 -3.924,-1.476 -1.404,-1.476 -1.404,-3.528 0,-3.168 2.7,-4.824 2.736,-1.692 7.776,-1.656 v -0.36 q 0,-4.032 -3.96,-4.032 -2.52,0 -4.536,1.296 l -0.72,-2.088 q 2.376,-1.548 5.724,-1.548 1.908,0 3.24,0.612 1.368,0.612 2.052,1.692 0.72,1.044 1.008,2.232 0.324,1.152 0.324,2.592 z m -3.06,4.824 v -3.024 q -7.38,-0.144 -7.38,3.924 0,1.476 0.828,2.268 0.864,0.756 2.16,0.756 1.584,0 2.664,-0.828 1.116,-0.864 1.548,-2.088 0.18,-0.54 0.18,-1.008 z m -26.18696,5.868 v -11.988 q 0,-3.276 -0.144,-5.436 h 2.772 l 0.108,3.42 h 0.144 q 0.576,-1.764 1.908,-2.772 1.332,-1.044 2.916,-1.044 0.468,0 0.9,0.108 v 2.988 q -0.468,-0.108 -1.08,-0.108 -1.656,0 -2.808,1.116 -1.116,1.116 -1.44,2.952 -0.144,0.864 -0.144,1.476 v 9.288 z m -16.61099,-20.628 3.096,-0.972 v 4.176 h 4.536 v 2.412 h -4.536 v 9.396 q 0,3.384 2.376,3.384 1.116,0 1.836,-0.216 l 0.144,2.376 q -1.152,0.468 -2.808,0.468 -2.232,0 -3.42,-1.368 -1.224,-1.26 -1.224,-4.536 v -9.504 h -2.7 v -2.412 h 2.7 z m -24.65399,-4.32 h 3.492 l -4.392,5.148 h -2.268 z m 0.216,24.948 h -3.168 v -17.424 h 3.168 z m -28.5629,0 v -12.708 q 0,-2.808 -0.144,-4.716 h 2.808 l 0.18,2.88 h 0.072 q 0.72,-1.368 2.232,-2.304 1.512,-0.972 3.528,-0.972 1.008,0 1.98,0.36 1.008,0.324 1.98,1.116 0.972,0.756 1.584,2.304 0.612,1.512 0.612,3.636 v 10.404 h -3.168 v -10.044 q 0,-2.304 -0.972,-3.708 -0.972,-1.44 -3.06,-1.44 -1.512,0 -2.664,0.936 -1.152,0.936 -1.584,2.304 -0.216,0.576 -0.216,1.476 v 10.476 z m -24.89098,-17.424 h 3.384 l 3.42,9.792 q 0.936,2.52 1.404,4.464 h 0.108 q 0.468,-1.656 1.476,-4.464 l 3.384,-9.792 h 3.312 l -6.84,17.424 h -3.024 z m -7.28696,9.288 h -12.24 q 0.036,3.024 1.728,4.536 1.692,1.512 4.248,1.512 2.7,0 4.824,-0.9 l 0.54,2.268 q -2.484,1.116 -5.796,1.116 -3.96,0 -6.264,-2.412 -2.304,-2.412 -2.304,-6.408 0,-4.032 2.232,-6.696 2.232,-2.7 5.94,-2.7 2.016,0 3.492,0.828 1.512,0.792 2.268,2.124 0.756,1.296 1.08,2.628 0.36,1.296 0.36,2.628 0,0.504 -0.108,1.476 z m -12.204,-2.268 h 9.252 q 0.036,-1.944 -1.008,-3.528 -1.008,-1.62 -3.384,-1.62 -2.196,0 -3.42,1.584 -1.224,1.584 -1.44,3.564 z m -18.627,10.404 v -11.988 q 0,-3.276 -0.144,-5.436 h 2.772 l 0.108,3.42 h 0.144 q 0.576,-1.764 1.908,-2.772 1.332,-1.044 2.916,-1.044 0.468,0 0.9,0.108 v 2.988 q -0.468,-0.108 -1.08,-0.108 -1.656,0 -2.808,1.116 -1.116,1.116 -1.44,2.952 -0.144,0.864 -0.144,1.476 v 9.288 z m -19.77892,-25.56 v 16.128 h 0.072 q 0.504,-0.72 1.548,-1.98 l 5.112,-6.012 h 3.816 l -6.732,7.164 7.668,10.26 h -3.852 l -6.012,-8.352 -1.62,1.8 v 6.552 h -3.132 v -25.56 z m -26.70596,14.868 v 6.516 q 0,2.592 0.288,4.176 h -2.88 l -0.252,-2.196 h -0.108 q -0.792,1.116 -2.196,1.872 -1.368,0.72 -3.132,0.72 -2.52,0 -3.924,-1.476 -1.404,-1.476 -1.404,-3.528 0,-3.168 2.7,-4.824 2.736,-1.692 7.776,-1.656 v -0.36 q 0,-4.032 -3.96,-4.032 -2.52,0 -4.536,1.296 l -0.72,-2.088 q 2.376,-1.548 5.724,-1.548 1.908,0 3.24,0.612 1.368,0.612 2.052,1.692 0.72,1.044 1.008,2.232 0.324,1.152 0.324,2.592 z m -3.06,4.824 v -3.024 q -7.38,-0.144 -7.38,3.924 0,1.476 0.828,2.268 0.864,0.756 2.16,0.756 1.584,0 2.664,-0.828 1.116,-0.864 1.548,-2.088 0.18,-0.54 0.18,-1.008 z m -31.67396,-2.268 h -12.24 q 0.036,3.024 1.728,4.536 1.692,1.512 4.248,1.512 2.7,0 4.824,-0.9 l 0.54,2.268 q -2.484,1.116 -5.796,1.116 -3.96,0 -6.264,-2.412 -2.304,-2.412 -2.304,-6.408 0,-4.032 2.232,-6.696 2.232,-2.7 5.94,-2.7 2.016,0 3.492,0.828 1.512,0.792 2.268,2.124 0.756,1.296 1.08,2.628 0.36,1.296 0.36,2.628 0,0.504 -0.108,1.476 z m -12.204,-2.268 h 9.252 q 0.036,-1.944 -1.008,-3.528 -1.008,-1.62 -3.384,-1.62 -2.196,0 -3.42,1.584 -1.224,1.584 -1.44,3.564 z m -12.47099,10.404 h -3.168 v -17.424 h 3.168 z m -3.024,-23.724 q 0.576,-0.576 1.44,-0.576 0.864,0 1.404,0.576 0.54,0.54 0.54,1.404 0.036,0.828 -0.54,1.404 -0.54,0.54 -1.476,0.54 -0.828,0 -1.368,-0.54 -0.54,-0.576 -0.54,-1.404 0,-0.828 0.54,-1.404 z m -10.5989,11.088 v 10.116 q 0,5.724 -2.484,7.956 -2.232,2.088 -6.336,2.088 -3.636,0 -5.796,-1.44 l 0.792,-2.412 q 2.196,1.368 5.112,1.368 2.592,0 4.104,-1.476 1.512,-1.476 1.512,-4.608 v -1.944 h -0.072 q -1.764,2.916 -5.544,2.916 -3.204,0 -5.328,-2.412 -2.088,-2.448 -2.088,-6.084 0,-4.212 2.34,-6.732 2.34,-2.52 5.508,-2.52 3.852,0 5.436,3.024 h 0.072 l 0.144,-2.628 h 2.772 q -0.144,2.52 -0.144,4.788 z m -3.132,5.22 v -3.132 q 0,-0.9 -0.18,-1.44 -0.468,-1.476 -1.62,-2.412 -1.152,-0.936 -2.808,-0.936 -2.304,0 -3.744,1.8 -1.44,1.8 -1.44,4.788 0,2.7 1.332,4.5 1.368,1.764 3.816,1.764 1.476,0 2.664,-0.864 1.224,-0.9 1.728,-2.376 0.252,-0.756 0.252,-1.692 z m -35.72699,-7.884 q 2.448,-2.52 6.192,-2.52 3.744,0 6.048,2.484 2.34,2.484 2.34,6.48 0,4.5 -2.592,6.876 -2.556,2.376 -6.084,2.376 -3.6,0 -5.976,-2.448 -2.376,-2.448 -2.376,-6.516 0,-4.248 2.448,-6.732 z m 6.12,-0.144 q -2.628,0 -3.996,2.016 -1.368,1.98 -1.368,4.752 0,2.88 1.476,4.788 1.512,1.908 3.816,1.908 2.268,0 3.78,-1.908 1.512,-1.944 1.512,-4.86 0,-1.584 -0.504,-3.024 -0.504,-1.476 -1.728,-2.556 -1.224,-1.116 -2.988,-1.116 z m -21.21895,15.444 v -25.56 h 3.168 v 25.56 z m -23.99098,-15.3 q 2.448,-2.52 6.192,-2.52 3.744,0 6.048,2.484 2.34,2.484 2.34,6.48 0,4.5 -2.592,6.876 -2.556,2.376 -6.084,2.376 -3.6,0 -5.976,-2.448 -2.376,-2.448 -2.376,-6.516 0,-4.248 2.448,-6.732 z m 6.12,-0.144 q -2.628,0 -3.996,2.016 -1.368,1.98 -1.368,4.752 0,2.88 1.476,4.788 1.512,1.908 3.816,1.908 2.268,0 3.78,-1.908 1.512,-1.944 1.512,-4.86 0,-1.584 -0.504,-3.024 -0.504,-1.476 -1.728,-2.556 -1.224,-1.116 -2.988,-1.116 z m -23.70296,-5.184 3.096,-0.972 v 4.176 h 4.536 v 2.412 h -4.536 v 9.396 q 0,3.384 2.376,3.384 1.116,0 1.836,-0.216 l 0.144,2.376 q -1.152,0.468 -2.808,0.468 -2.232,0 -3.42,-1.368 -1.224,-1.26 -1.224,-4.536 v -9.504 h -2.7 v -2.412 h 2.7 z m -11.10288,9.936 v 6.516 q 0,2.592 0.288,4.176 h -2.88 l -0.252,-2.196 h -0.108 q -0.792,1.116 -2.196,1.872 -1.368,0.72 -3.132,0.72 -2.52,0 -3.924,-1.476 -1.404,-1.476 -1.404,-3.528 0,-3.168 2.7,-4.824 2.736,-1.692 7.776,-1.656 v -0.36 q 0,-4.032 -3.96,-4.032 -2.52,0 -4.536,1.296 l -0.72,-2.088 q 2.376,-1.548 5.724,-1.548 1.908,0 3.24,0.612 1.368,0.612 2.052,1.692 0.72,1.044 1.008,2.232 0.324,1.152 0.324,2.592 z m -3.06,4.824 v -3.024 q -7.38,-0.144 -7.38,3.924 0,1.476 0.828,2.268 0.864,0.756 2.16,0.756 1.584,0 2.664,-0.828 1.116,-0.864 1.548,-2.088 0.18,-0.54 0.18,-1.008 z m -44.61898,5.868 v -12.708 q 0,-2.808 -0.144,-4.716 h 2.772 l 0.144,2.808 h 0.108 q 1.872,-3.204 5.472,-3.204 1.728,0 3.024,0.972 1.332,0.936 1.908,2.52 h 0.072 q 0.756,-1.404 1.944,-2.268 1.62,-1.224 3.852,-1.224 0.972,0 1.872,0.36 0.936,0.36 1.836,1.152 0.9,0.756 1.44,2.34 0.576,1.548 0.576,3.708 v 10.26 h -3.096 v -9.864 q 0,-5.364 -3.78,-5.364 -1.296,0 -2.304,0.828 -1.008,0.828 -1.44,2.052 -0.252,0.756 -0.252,1.584 v 10.764 h -3.096 v -10.44 q 0,-2.16 -0.936,-3.456 -0.936,-1.332 -2.7,-1.332 -1.404,0 -2.484,0.936 -1.044,0.936 -1.44,2.232 -0.252,0.648 -0.252,1.548 v 10.512 z m -9.44699,-8.136 h -12.24 q 0.036,3.024 1.728,4.536 1.692,1.512 4.248,1.512 2.7,0 4.824,-0.9 l 0.54,2.268 q -2.484,1.116 -5.796,1.116 -3.96,0 -6.264,-2.412 -2.304,-2.412 -2.304,-6.408 0,-4.032 2.232,-6.696 2.232,-2.7 5.94,-2.7 2.016,0 3.492,0.828 1.512,0.792 2.268,2.124 0.756,1.296 1.08,2.628 0.36,1.296 0.36,2.628 0,0.504 -0.108,1.476 z m -12.204,-2.268 h 9.252 q 0.036,-1.944 -1.008,-3.528 -1.008,-1.62 -3.384,-1.62 -2.196,0 -3.42,1.584 -1.224,1.584 -1.44,3.564 z m -27.19495,10.404 v -25.56 h 3.168 v 10.872 h 0.072 q 0.792,-1.404 2.268,-2.232 1.548,-0.9 3.24,-0.9 1.008,0 1.944,0.36 0.972,0.324 1.944,1.116 1.008,0.756 1.584,2.304 0.612,1.548 0.612,3.672 v 10.368 h -3.168 v -10.008 q 0,-2.304 -0.972,-3.744 -0.972,-1.44 -3.06,-1.44 -1.476,0 -2.628,0.9 -1.152,0.9 -1.62,2.268 -0.216,0.504 -0.216,1.512 v 10.512 z m -37.937949,-17.424 h 3.384 l 3.42,9.792 q 0.936,2.52 1.404,4.464 h 0.108 q 0.468,-1.656 1.476,-4.464 l 3.383999,-9.792 h 3.312 l -6.839999,17.424 h -3.024 z m -8.078897,6.732 v 6.516 q 0,2.592 0.288,4.176 h -2.88 l -0.252,-2.196 h -0.108 q -0.792,1.116 -2.196,1.872 -1.368,0.72 -3.132,0.72 -2.52,0 -3.924,-1.476 -1.404,-1.476 -1.404,-3.528 0,-3.168 2.7,-4.824 2.736,-1.692 7.776,-1.656 v -0.36 q 0,-4.032 -3.96,-4.032 -2.52,0 -4.536,1.296 l -0.72,-2.088 q 2.376,-1.548 5.724,-1.548 1.908,0 3.24,0.612 1.368,0.612 2.052,1.692 0.72,1.044 1.008,2.232 0.324,1.152 0.324,2.592 z m -3.06,4.824 v -3.024 q -7.38,-0.144 -7.38,3.924 0,1.476 0.828,2.268 0.864,0.756 2.16,0.756 1.584,0 2.664,-0.828 1.116,-0.864 1.548,-2.088 0.18,-0.54 0.18,-1.008 z m -25.790979,-14.76 3.096,-0.972 v 4.176 h 4.536 v 2.412 h -4.536 v 9.396 q 0,3.384 2.376,3.384 1.116,0 1.836,-0.216 l 0.144,2.376 q -1.152,0.468 -2.808,0.468 -2.232,0 -3.42,-1.368 -1.224,-1.26 -1.224,-4.536 v -9.504 h -2.7 v -2.412 h 2.7 z m -21.614997,19.8 0.792,-2.412 q 1.944,1.26 4.176,1.26 1.656,0 2.52,-0.72 0.864,-0.72 0.864,-1.872 0,-1.116 -0.756,-1.836 -0.72,-0.72 -2.484,-1.368 -4.608,-1.656 -4.608,-4.932 0,-2.16 1.62,-3.636 1.656,-1.476 4.392,-1.476 2.448,0 4.284,1.08 l -0.792,2.304 q -1.584,-1.008 -3.564,-1.008 -1.368,0 -2.16,0.684 -0.756,0.684 -0.756,1.692 0,1.044 0.72,1.656 0.756,0.612 2.592,1.296 2.34,0.9 3.456,2.124 1.116,1.224 1.116,3.132 0,2.34 -1.728,3.816 -1.728,1.44 -4.788,1.44 -2.808,0 -4.896,-1.224 z m -27.194959,-23.436 h 3.168 v 14.364 q 0,3.888 1.548,5.832 1.548,1.908 4.104,1.908 2.808,0 4.356,-1.908 1.548,-1.908 1.548,-5.832 v -14.364 h 3.168 v 14.148 q 0,5.328 -2.52,7.92 -2.484,2.592 -6.66,2.592 -3.996,0 -6.372,-2.484 -2.34,-2.52 -2.34,-7.884 z m 10.512,-5.508 h 3.816 l -4.572,4.212 h -2.592 z" />
  </g>
</svg>
